HIERARCHY
ROOT Hips
{
	OFFSET -0.001795 -0.223333 0.028219
	CHANNELS 6 Xposition Yposition Zposition Zrotation Yrotation Xrotation 
	JOINT LeftUpLeg
	{
		OFFSET 0.069520 -0.091406 -0.006815
		CHANNELS 3 Zrotation Yrotation Xrotation
		JOINT LeftLeg
		{
			OFFSET 0.034277 -0.375199 -0.004496
			CHANNELS 3 Zrotation Yrotation Xrotation
			JOINT LeftFoot
			{
				OFFSET -0.013596 -0.397961 -0.043693
				CHANNELS 3 Zrotation Yrotation Xrotation
				JOINT LeftToe
				{
					OFFSET 0.026358 -0.055791 0.119288
					CHANNELS 3 Zrotation Yrotation Xrotation
					End Site
					{
						OFFSET 0.000000 0.000000 0.000000
					}
				}
			}
		}
	}
	JOINT RightUpLeg
	{
		OFFSET -0.067670 -0.090522 -0.004320
		CHANNELS 3 Zrotation Yrotation Xrotation
		JOINT RightLeg
		{
			OFFSET -0.038290 -0.382569 -0.008850
			CHANNELS 3 Zrotation Yrotation Xrotation
			JOINT RightFoot
			{
				OFFSET 0.015774 -0.398415 -0.042312
				CHANNELS 3 Zrotation Yrotation Xrotation
				JOINT RightToe
				{
					OFFSET -0.025372 -0.048144 0.123348
					CHANNELS 3 Zrotation Yrotation Xrotation
					End Site
					{
						OFFSET 0.000000 0.000000 0.000000
					}
				}
			}
		}
	}
	JOINT Spine
	{
		OFFSET -0.002533 0.108963 -0.026696
		CHANNELS 3 Zrotation Yrotation Xrotation
		JOINT Spine1
		{
			OFFSET 0.005487 0.135180 0.001092
			CHANNELS 3 Zrotation Yrotation Xrotation
			JOINT Spine2
			{
				OFFSET 0.001457 0.052922 0.025425
				CHANNELS 3 Zrotation Yrotation Xrotation
				JOINT Neck
				{
					OFFSET -0.002778 0.213870 -0.042857
					CHANNELS 3 Zrotation Yrotation Xrotation
					JOINT Head
					{
						OFFSET 0.005152 0.064970 0.051349
						CHANNELS 3 Zrotation Yrotation Xrotation
						End Site
						{
							OFFSET 0.000000 0.000000 0.000000
						}
					}
				}
				JOINT LeftShoulder
				{
					OFFSET 0.078845 0.121749 -0.034090
					CHANNELS 3 Zrotation Yrotation Xrotation
					JOINT LeftArm
					{
						OFFSET 0.090977 0.030469 -0.008868
						CHANNELS 3 Zrotation Yrotation Xrotation
						JOINT LeftForeArm
						{
							OFFSET 0.259612 -0.012772 -0.027456
							CHANNELS 3 Zrotation Yrotation Xrotation
							JOINT LeftHand
							{
								OFFSET 0.249234 0.008986 -0.001171
								CHANNELS 3 Zrotation Yrotation Xrotation
								End Site
								{
									OFFSET 0.000000 0.000000 0.000000
								}
							}
						}
					}
				}
				JOINT RightShoulder
				{
					OFFSET -0.081759 0.118833 -0.038615
					CHANNELS 3 Zrotation Yrotation Xrotation
					JOINT RightArm
					{
						OFFSET -0.096012 0.032551 -0.009143
						CHANNELS 3 Zrotation Yrotation Xrotation
						JOINT RightForeArm
						{
							OFFSET -0.253742 -0.013329 -0.021401
							CHANNELS 3 Zrotation Yrotation Xrotation
							JOINT RightHand
							{
								OFFSET -0.255298 0.007772 -0.005559
								CHANNELS 3 Zrotation Yrotation Xrotation
								End Site
								{
									OFFSET 0.000000 0.000000 0.000000
								}
							}
						}
					}
				}
			}
		}
	}
}
MOTION
Frames: 16
Frame Time: 0.050000
0.000000 0.895606 0.000000 1.457523 1.603173 20.450958 3.083631 -2.949193 -40.232098 -8.932976 1.792806 20.117201 11.605560 24.133574 5.347029 0.000000 0.000000 0.000000 -6.682282 1.886888 -44.496687 8.453765 -1.689990 19.587071 -7.646914 -19.636533 4.932727 0.000000 0.000000 0.000000 3.510257 -4.859173 52.662744 -3.132607 1.266000 -27.323905 -3.526319 1.807023 29.070868 13.933218 -4.613976 -32.498066 0.000000 0.000000 0.000000 -15.227628 -27.549291 13.534285 -48.277265 -40.983628 8.664282 4.201962 -36.461651 0.707944 0.000000 0.000000 0.000000 20.299211 14.736043 8.425895 54.528653 34.145741 7.823994 1.972737 48.379019 4.480683 0.000000 0.000000 0.000000 
-0.001074 0.893643 0.000811 1.297715 1.810837 22.127920 3.701496 -2.807981 -40.508809 -8.465090 1.585713 18.577135 10.115869 21.651307 3.687129 0.000000 0.000000 0.000000 -7.539417 1.588335 -45.743254 10.048675 -2.075880 18.235681 -7.955812 -20.338196 6.628291 0.000000 0.000000 0.000000 3.311977 -4.771533 52.108099 -1.418644 0.960331 -27.610589 -3.560408 4.809973 28.573775 15.314704 -3.867531 -36.610443 0.000000 0.000000 0.000000 -17.173299 -28.996420 13.964507 -44.678215 -39.559948 7.073727 -0.348662 -39.005037 2.203685 0.000000 0.000000 0.000000 21.957076 13.018750 8.626568 52.323830 33.615608 6.972914 3.273807 50.014544 5.615956 0.000000 0.000000 0.000000 
-0.001786 0.892421 0.001809 1.493383 1.595130 22.134736 3.381372 -2.921620 -41.072071 -8.533007 1.669008 19.916093 10.627611 22.657177 2.502300 0.000000 0.000000 0.000000 -7.270424 1.732131 -46.185103 10.649781 -2.347102 20.057441 -9.430388 -23.543954 5.396095 0.000000 0.000000 0.000000 3.973876 -5.218063 53.273745 -3.437177 1.300836 -28.127803 -2.836508 4.040086 27.328688 14.299108 -4.101341 -33.236363 0.000000 0.000000 0.000000 -17.439752 -28.507916 13.922136 -44.974760 -39.038955 7.155875 -1.215375 -39.410509 2.520335 0.000000 0.000000 0.000000 22.943254 11.906685 7.694321 52.660504 33.428525 7.161060 5.408204 47.519467 5.966255 0.000000 0.000000 0.000000 
-0.002407 0.893455 0.003279 1.712098 1.648932 22.454014 3.075741 -3.066317 -41.552490 -8.295071 1.612909 20.373865 10.258100 22.001670 2.496387 0.000000 0.000000 0.000000 -7.267477 1.746041 -47.777608 10.913025 -2.551355 21.775961 -9.264580 -23.072225 7.132939 0.000000 0.000000 0.000000 3.924304 -5.414195 54.949983 -3.299449 1.270797 -29.170656 -3.137719 4.293981 27.578881 15.131910 -3.787985 -36.520413 0.000000 0.000000 0.000000 -18.056591 -29.124579 14.366156 -44.560551 -38.944815 6.988342 -0.705923 -38.401509 2.267846 0.000000 0.000000 0.000000 23.409696 12.580933 8.282181 49.624811 34.324258 6.730544 3.417772 47.081325 4.971376 0.000000 0.000000 0.000000 
-0.002783 0.892646 0.005311 2.106634 1.868691 21.775830 2.556743 -3.246341 -41.203463 -8.571698 1.712682 21.363967 10.839674 23.075882 2.505502 0.000000 0.000000 0.000000 -7.304179 1.659885 -47.598646 10.873676 -2.656325 23.074776 -9.734933 -23.984457 6.850365 0.000000 0.000000 0.000000 3.872632 -5.552357 55.870036 -3.102640 1.247425 -28.949438 -3.161866 4.129850 27.553982 14.025980 -3.281186 -36.763958 0.000000 0.000000 0.000000 -17.525081 -28.395921 13.801550 -44.748497 -39.549828 7.300426 0.754994 -38.821911 1.772755 0.000000 0.000000 0.000000 23.022032 12.495469 8.131955 48.785990 35.994726 7.262785 2.406993 45.098261 4.237283 0.000000 0.000000 0.000000 
-0.002762 0.892584 0.007419 2.324944 1.919336 21.116242 2.166683 -3.334620 -40.672441 -9.076878 1.884032 22.015636 10.566393 22.534244 1.805388 0.000000 0.000000 0.000000 -7.309354 1.632964 -47.274382 10.561859 -2.622220 23.922931 -9.388323 -23.272976 6.418857 0.000000 0.000000 0.000000 4.035355 -5.839718 57.384379 -3.772727 1.349671 -29.843541 -2.902212 3.981571 27.621135 14.944679 -3.417354 -38.336979 0.000000 0.000000 0.000000 -18.033301 -28.622415 14.080241 -43.390353 -39.288778 6.804734 0.256113 -39.204400 1.971427 0.000000 0.000000 0.000000 22.830504 11.904478 7.659808 48.366136 36.664889 7.454470 1.593738 44.860058 3.865754 0.000000 0.000000 0.000000 
-0.002301 0.891999 0.009431 2.244850 2.009140 20.977815 2.097392 -3.399209 -41.022000 -9.214852 1.973942 23.203597 10.878892 23.133221 1.747536 0.000000 0.000000 0.000000 -7.130017 1.687505 -47.672842 10.534833 -2.697662 25.020433 -9.641635 -23.808212 6.148815 0.000000 0.000000 0.000000 4.313916 -6.039099 57.328551 -3.855896 1.363235 -29.626344 -3.256493 3.645857 27.308165 15.035552 -3.612100 -37.689312 0.000000 0.000000 0.000000 -18.274534 -28.378756 14.075174 -43.045811 -39.199639 6.706310 1.958807 -38.533077 1.355045 0.000000 0.000000 0.000000 23.617431 12.502930 8.048449 47.857338 37.058781 7.464184 -0.046757 43.599613 3.063656 0.000000 0.000000 0.000000 
-0.001755 0.891798 0.011005 2.051221 1.698426 21.181769 2.205100 -3.358872 -41.556730 -9.375796 2.127316 24.752297 10.774848 22.976108 0.641962 0.000000 0.000000 0.000000 -6.373465 2.068015 -48.380603 10.068107 -2.573086 26.076777 -9.586197 -23.840796 5.267869 0.000000 0.000000 0.000000 4.549828 -6.063763 57.076405 -4.198020 1.410252 -29.468991 -3.069822 3.555542 26.532616 14.848199 -3.562753 -37.396789 0.000000 0.000000 0.000000 -18.758130 -28.286939 14.176255 -42.765310 -38.211977 6.337379 2.409460 -38.740083 1.208069 0.000000 0.000000 0.000000 24.204277 12.540837 8.054479 47.349256 36.922944 7.349516 -0.794059 43.412889 2.721387 0.000000 0.000000 0.000000 
-0.001314 0.891461 0.012050 1.834056 1.445023 21.275686 2.211367 -3.354850 -42.053999 -9.362361 2.207390 25.981873 11.021064 23.461519 0.514801 0.000000 0.000000 0.000000 -5.945129 2.319377 -49.107362 10.087054 -2.596001 26.752907 -9.700958 -24.100086 5.488233 0.000000 0.000000 0.000000 4.589704 -5.911709 56.302764 -3.680657 1.332482 -28.976893 -3.288607 3.682096 26.148526 14.028427 -3.063462 -38.000084 0.000000 0.000000 0.000000 -19.435431 -27.820040 14.007999 -42.057755 -37.969606 6.119263 2.823518 -37.683432 1.009694 0.000000 0.000000 0.000000 24.515608 12.881353 8.324540 47.511338 37.356518 7.622563 -1.990399 43.135527 2.252110 0.000000 0.000000 0.000000 
-0.001109 0.891832 0.012343 1.756048 1.130829 20.912035 2.171115 -3.387124 -42.923876 -9.651195 2.454195 28.097878 11.118591 23.624239 0.350442 0.000000 0.000000 0.000000 -5.390214 2.618635 -49.339788 10.032899 -2.605924 27.714861 -9.490645 -23.742809 4.833079 0.000000 0.000000 0.000000 4.585180 -5.786608 56.134490 -3.571583 1.311253 -28.802096 -3.404719 3.784812 25.881820 14.277476 -2.878712 -39.514191 0.000000 0.000000 0.000000 -19.165282 -27.327160 13.629334 -42.335367 -37.329152 5.978661 2.966557 -37.633231 0.942083 0.000000 0.000000 0.000000 25.163095 13.011665 8.474243 46.700131 37.712393 7.562774 -2.296653 43.131136 2.103792 0.000000 0.000000 0.000000 
-0.001108 0.893083 0.011322 1.774511 1.048837 20.705238 2.387910 -3.380069 -43.884269 -10.068831 2.735226 30.025055 11.313155 23.919445 1.448864 0.000000 0.000000 0.000000 -4.986558 2.779893 -49.028004 10.314832 -2.700589 27.768506 -9.639543 -24.133610 3.989033 0.000000 0.000000 0.000000 4.474952 -5.644421 55.767030 -3.525016 1.306121 -28.677014 -3.315872 4.085864 25.657953 14.384572 -2.832544 -39.770987 0.000000 0.000000 0.000000 -19.687151 -26.994110 13.406771 -42.518127 -36.341516 5.710096 1.027470 -37.854603 1.565716 0.000000 0.000000 0.000000 25.846713 12.965090 8.600189 46.040982 38.073625 7.548804 -0.793903 43.255084 2.647495 0.000000 0.000000 0.000000 
-0.000868 0.894780 0.008228 1.771134 1.279586 20.565608 2.710665 -3.400382 -44.980544 -10.536496 3.025271 32.041533 11.111628 23.459550 2.940619 0.000000 0.000000 0.000000 -5.009885 2.709722 -48.839138 10.549292 -2.777752 27.348807 -9.435962 -23.654897 3.963898 0.000000 0.000000 0.000000 4.625419 -5.702054 54.976842 -3.694265 1.346375 -28.133722 -3.301989 4.268770 25.374006 14.357965 -2.522891 -41.173771 0.000000 0.000000 0.000000 -20.170323 -25.943971 12.747574 -43.027218 -35.248242 5.460292 -0.982632 -37.479305 2.192252 0.000000 0.000000 0.000000 25.740334 12.539800 8.377461 46.945445 38.205449 7.904537 0.892724 42.900890 3.268351 0.000000 0.000000 0.000000 
-0.000024 0.897376 0.002719 1.775363 0.538432 21.234976 3.927008 -2.939843 -46.744476 -12.374155 4.074944 34.198934 11.354844 23.784166 4.601007 0.000000 0.000000 0.000000 -4.795958 3.032429 -50.217433 9.773782 -2.475628 28.166724 -9.070341 -22.942978 4.674025 0.000000 0.000000 0.000000 4.287909 -5.216373 54.290949 -3.888170 1.362004 -28.993173 -2.551347 4.480791 25.770060 13.284073 -1.992981 -41.968478 0.000000 0.000000 0.000000 -21.702261 -24.770442 12.326713 -43.062952 -33.244757 4.693987 -3.688079 -37.879363 3.155573 0.000000 0.000000 0.000000 25.954111 12.736612 8.545301 46.482037 38.211576 7.735775 3.575826 43.715917 4.385968 0.000000 0.000000 0.000000 
0.001820 0.899305 -0.004852 2.072602 0.508242 22.152608 4.986294 -2.684764 -49.345027 -13.249800 4.699372 36.453911 11.566718 24.075107 6.540785 0.000000 0.000000 0.000000 -5.730873 2.705972 -51.402716 10.730746 -2.828739 28.030192 -9.303405 -23.389053 5.920065 0.000000 0.000000 0.000000 4.352902 -5.096502 52.569732 -3.133097 1.242533 -27.498344 -3.141098 5.610411 25.004388 13.033088 -1.273227 -44.498014 0.000000 0.000000 0.000000 -21.612101 -24.363561 11.633238 -44.089049 -32.259295 4.699986 -4.571400 -37.869448 3.388001 0.000000 0.000000 0.000000 26.313459 12.071417 8.624122 46.694281 38.713588 8.001389 5.748186 43.556593 5.342752 0.000000 0.000000 0.000000 
0.004622 0.901606 -0.013630 2.307152 -0.584680 22.130083 5.839050 -2.088582 -48.823071 -13.768387 5.190568 37.108946 11.894878 24.801901 3.724830 0.000000 0.000000 0.000000 -5.715700 2.961151 -51.252684 9.721321 -2.310845 27.025288 -8.792133 -22.404725 7.222714 0.000000 0.000000 0.000000 3.462316 -4.325649 53.043689 -3.115856 1.230853 -28.179610 -2.890183 6.071474 25.613485 13.644293 -1.290025 -45.747403 0.000000 0.000000 0.000000 -22.293792 -23.690196 11.282317 -44.542931 -31.456431 4.424580 -4.389708 -38.257535 3.387504 0.000000 0.000000 0.000000 25.408416 11.800601 8.414049 48.480556 38.794502 8.554603 6.725904 44.552244 6.002176 0.000000 0.000000 0.000000 
0.008128 0.902941 -0.023372 2.534692 -0.396176 22.178841 5.866371 -2.094799 -47.865911 -11.194437 3.931358 36.703172 11.487213 24.100211 3.662454 0.000000 0.000000 0.000000 -6.184717 2.674279 -50.331269 9.939320 -2.248335 24.164363 -9.073043 -22.835573 9.106081 0.000000 0.000000 0.000000 3.650802 -4.445459 52.386942 -2.867292 1.187106 -27.672475 -2.763688 6.412717 25.336682 13.347062 -1.160252 -45.569563 0.000000 0.000000 0.000000 -23.276949 -25.004951 12.085202 -43.880473 -29.730993 3.794714 -4.228080 -38.032347 3.245702 0.000000 0.000000 0.000000 24.616485 11.823951 8.448030 49.973813 37.588420 8.536949 6.753681 45.127787 6.147423 0.000000 0.000000 0.000000 
